<?xml version="1.0"?>
<svg version="1.1" xmlns="http://www.w3.org/2000/svg" width="190px" height="45px" viewBox="0 0 160 45" style="">
  <path fill="#" d=""/>
  <path fill="#" d="M3.28,30.16l0.3,1.68s0.8,0.42,1.96,0.42c1.28,0,2.42-0.56,2.42-1.62c0-2.34-6.76-1.3-6.76-6.24c0-2.76,2.18-4.24,5.08-4.24c2.26,0,4.4,0.8,4.4,0.8l-0.1,3.64l-1.84,0l-0.5-1.7s-0.9-0.3-1.76-0.3c-1.42,0-2.12,0.62-2.12,1.42c0,2.32,6.74,1.4,6.74,6.1c0,3-2.32,4.64-5.4,4.64c-2.26,0-4.46-0.76-4.46-0.76l0-3.84l2.04,0z M17.9302,32.2l0-9.4l-1.9,0l-0.5,1.9l-1.84,0l0-4.3l11.6,0l0,4.3l-1.86,0l-0.5-1.9l-1.9,0l0,9.4l1.9,0.6l0,1.7l-6.9,0l0-1.7z M27.5804,34.5l0-1.7l1.5-0.6l0-9.4l-1.5-0.6l0-1.7l4.6-0.1l1.52,0c3.28,0,5.2,1.36,5.2,4.08c0,1.88-0.9,3.1-2.26,3.78c0.22,0.26,0.52,0.64,0.84,1.3l1.34,2.74l1.36,0.5l0,1.7l-3.7,0l-1.68-3.7c-0.68-1.52-0.86-1.84-1.92-1.84l-0.7,0l0,3.24l1.44,0.6l0,1.7l-6.04,0z M32.1804,26.86l1.14,0c1.58,0,2.5-0.76,2.5-2.1c0-1.14-0.76-1.96-2-1.96l-1.64,0l0,4.06z M51.3106,26.1l0,2.2l-4.04,0l0,3.8l3.58,0l0.46-1.64l1.8,0l0,4.04l-10.44,0l0-1.7l1.5-0.6l0-9.4l-1.5-0.6l0-1.7l4.6-0.1l5.6,0l0,3.86l-1.8,0l-0.5-1.46l-3.3,0l0,3.3l4.04,0z M70.4608,32.8l0,1.7l-6.36,0l0-1.7l1.5-0.54l-0.48-1.46l-4.44,0l-0.5,1.44l1.56,0.56l0,1.7l-6.04,0l0-1.7l1.46-0.56l4.4-11.78l3.2-0.06l4.3,11.84z M64.4608,28.66l-1.5-4.74l-1.58,4.74l3.08,0z M72.651,34.5l0-1.7l1.5-0.6l0-9.4l-1.5-0.6l0-1.7l5.16-0.1l3,6.66l3.14-6.56l4.8-0.1l0,1.8l-1.44,0.6l0,9.4l1.5,0.6l0,1.7l-5.96,0l0-1.7l1.56-0.6l0-7.52l-0.54,1.32l-2.26,4.7l-2.16,0.1l-2.3-4.74l-0.34-1.04l0,7.18l1.54,0.6l0,1.7l-5.7,0z M94.1812,30.16l0.3,1.68s0.8,0.42,1.96,0.42c1.28,0,2.42-0.56,2.42-1.62c0-2.34-6.76-1.3-6.76-6.24c0-2.76,2.18-4.24,5.08-4.24c2.26,0,4.4,0.8,4.4,0.8l-0.1,3.64l-1.84,0l-0.5-1.7s-0.9-0.3-1.76-0.3c-1.42,0-2.12,0.62-2.12,1.42c0,2.32,6.74,1.4,6.74,6.1c0,3-2.32,4.64-5.4,4.64c-2.26,0-4.46-0.76-4.46-0.76l0-3.84l2.04,0z M112.0914,20.16c4,0,6.3,2.64,6.3,7.1c0,4.5-2.7,7.5-6.7,7.5s-6.2-2.5-6.2-7.2c0-4.6,2.54-7.4,6.6-7.4z M111.9914,22.66c-2,0-3.1,1.24-3.1,4.8c0,3.3,0.9,4.8,2.9,4.8s3.2-1.3,3.2-4.9c0-3.3-1-4.7-3-4.7z M121.5816,34.5l0-1.7l1.5-0.6l0-9.4l-1.5-0.6l0-1.7l4.6-0.1l1.52,0c3.28,0,5.2,1.36,5.2,4.08c0,1.88-0.9,3.1-2.26,3.78c0.22,0.26,0.52,0.64,0.84,1.3l1.34,2.74l1.36,0.5l0,1.7l-3.7,0l-1.68-3.7c-0.68-1.52-0.86-1.84-1.92-1.84l-0.7,0l0,3.24l1.44,0.6l0,1.7l-6.04,0z M126.1816,26.86l1.14,0c1.58,0,2.5-0.76,2.5-2.1c0-1.14-0.76-1.96-2-1.96l-1.64,0l0,4.06z M140.2118,32.2l0-9.4l-1.9,0l-0.5,1.9l-1.84,0l0-4.3l11.6,0l0,4.3l-1.86,0l-0.5-1.9l-1.9,0l0,9.4l1.9,0.6l0,1.7l-6.9,0l0-1.7z"/>
</svg>
